<?xml version="1.0" standalone="no"?>
<!DOCTYPE svg PUBLIC "-//W3C//DTD SVG 20010904//EN"
 "http://www.w3.org/TR/2001/REC-SVG-20010904/DTD/svg10.dtd">
<svg version="1.0" xmlns="http://www.w3.org/2000/svg"
 width="400.000000pt" height="400.000000pt" viewBox="0 0 400.000000 400.000000"
 preserveAspectRatio="xMidYMid meet">

<g transform="translate(0.000000,400.000000) scale(0.100000,-0.100000)"
fill="#000000" stroke="none">
<path d="M460 3660 l0 -241 85 7 85 7 -1 -164 c-1 -90 -5 -238 -8 -328 l-6
-164 -77 -30 -78 -30 0 -254 0 -253 50 25 c27 14 53 25 58 25 4 0 13 -44 20
-97 43 -337 152 -700 306 -1018 120 -247 248 -443 382 -583 l55 -57 -6 48 c-3
26 -3 68 1 94 l7 47 38 -83 c22 -46 64 -121 95 -167 53 -80 173 -214 192 -214
5 0 12 26 15 58 8 67 25 132 35 132 4 0 16 -16 26 -35 29 -54 149 -195 207
-242 43 -37 54 -41 71 -32 40 22 154 145 208 226 30 45 58 82 63 83 14 0 30
-54 36 -125 l6 -70 80 80 c91 91 173 209 213 307 15 37 31 68 35 68 5 0 7 -38
5 -84 -4 -101 -8 -103 115 49 246 305 425 676 526 1087 41 164 81 407 81 486
0 23 5 42 10 42 6 0 33 -11 60 -25 27 -14 51 -25 52 -25 2 0 2 114 0 254 l-3
253 -72 28 c-40 15 -75 30 -78 34 -4 3 -9 152 -13 330 l-6 324 85 -7 85 -6 0
240 0 240 -820 0 -820 0 -1 -152 c-1 -145 -1 -150 -13 -98 -7 30 -19 69 -28
86 -26 48 -100 109 -164 135 l-59 24 -567 3 -568 3 0 -241z m1501 127 c-10 -9
-11 -8 -5 6 3 10 9 15 12 12 3 -3 0 -11 -7 -18z m-451 1 c8 -1 26 2 40 6 20 6
22 5 10 -4 -12 -9 -9 -11 17 -8 18 3 30 1 27 -4 -3 -4 -3 -8 0 -8 2 0 12 -3
22 -7 13 -5 15 -3 9 7 -5 9 -4 11 4 6 6 -4 9 -12 6 -17 -4 -5 -1 -10 4 -10 6
-1 17 -2 24 -3 6 -1 11 -7 10 -14 -2 -6 3 -9 11 -6 8 3 17 0 22 -7 4 -8 3 -10
-4 -5 -18 11 -14 -10 5 -25 14 -12 16 -12 8 0 -5 9 -4 12 2 8 6 -4 13 -16 16
-27 3 -11 1 -18 -4 -14 -15 9 -10 -13 6 -26 17 -14 21 -80 5 -80 -6 0 -9 -40
-8 -102 1 -84 2 -94 8 -53 l7 50 1 -68 c1 -40 -2 -66 -7 -62 -5 3 -13 -5 -16
-16 -4 -12 -14 -38 -23 -58 -9 -20 -15 -39 -14 -43 1 -3 -6 -12 -15 -20 -15
-11 -16 -11 -10 6 6 16 5 17 -8 6 -8 -7 -13 -16 -10 -20 3 -5 1 -11 -5 -15 -5
-3 -10 -1 -10 5 0 6 -5 8 -10 5 -6 -4 -8 -11 -5 -16 3 -5 0 -6 -8 -3 -8 3 -20
-2 -27 -11 -10 -12 -16 -13 -26 -4 -19 15 -18 4 2 -26 9 -14 20 -23 24 -20 4
3 7 -3 6 -12 0 -10 4 -18 11 -18 6 0 15 -4 20 -9 5 -5 3 -6 -4 -2 -22 12 -14
-12 13 -41 14 -15 22 -22 18 -14 -5 9 -3 12 4 7 7 -4 12 -17 12 -30 0 -29 29
-67 37 -47 5 11 7 11 14 0 8 -12 11 -11 19 1 6 10 10 11 10 3 0 -14 26 -18 32
-5 2 5 23 12 48 16 31 4 40 3 30 -4 -12 -8 -9 -10 13 -10 24 0 27 -4 27 -35 0
-30 -4 -35 -27 -41 -113 -25 -193 -53 -286 -100 -117 -59 -117 -59 -117 -43 0
5 5 7 11 3 6 -3 -1 12 -16 35 -15 22 -30 41 -32 41 -3 0 2 -11 11 -25 28 -43
17 -39 -18 6 -25 33 -31 47 -23 57 8 10 5 14 -11 18 -11 4 -23 13 -26 21 -4 9
-1 12 7 7 6 -3 1 4 -13 17 -14 13 -19 20 -11 14 10 -7 10 -2 -3 18 -10 15 -23
27 -30 27 -6 1 -22 18 -35 38 l-23 37 22 -20 23 -20 -14 23 c-8 12 -17 22 -21
22 -5 0 -8 5 -8 11 0 7 -8 18 -17 26 -11 9 -12 12 -3 7 11 -5 12 -4 4 5 -11
12 -47 5 -40 -8 5 -8 -11 -10 -101 -13 -38 -1 -60 -4 -50 -6 18 -4 17 -5 -2
-18 -21 -15 -30 -64 -12 -64 5 0 4 -14 -2 -30 -9 -23 -9 -35 0 -49 6 -10 8
-24 3 -31 -10 -17 -3 -37 16 -44 9 -3 12 -1 9 4 -3 6 -4 10 -1 10 2 0 13 3 23
6 15 5 16 4 3 -6 -13 -10 -12 -11 3 -6 10 3 28 6 40 6 18 0 20 2 7 11 -11 8
-6 9 22 5 24 -3 37 -1 35 6 -1 6 6 12 16 13 9 2 15 -1 11 -6 -3 -5 0 -9 5 -9
6 0 11 -7 11 -16 0 -9 -5 -12 -12 -8 -9 6 -9 3 1 -9 10 -13 11 -24 2 -48 -6
-18 -11 -41 -11 -53 0 -17 2 -18 10 -6 8 11 10 3 8 -30 -3 -45 -3 -45 -38 -42
-23 2 -31 0 -22 -6 11 -7 9 -10 -7 -15 -12 -3 -19 -1 -15 4 6 11 2 11 -20 3
-9 -3 -13 -11 -9 -18 4 -6 -1 -5 -10 3 -10 8 -20 11 -24 7 -3 -3 0 -6 8 -6 11
-1 11 -2 -1 -9 -29 -16 -63 -24 -56 -12 8 13 4 14 -18 5 -9 -3 -13 -11 -9 -17
4 -6 0 -8 -10 -4 -10 3 -17 2 -17 -2 0 -5 -7 -12 -16 -15 -10 -4 -13 -2 -8 7
4 6 -1 4 -12 -5 -23 -20 -101 -51 -126 -50 -10 0 -18 -3 -18 -8 0 -5 -9 -7
-20 -5 -11 2 -18 0 -15 -6 4 -5 4 -9 1 -9 -2 0 -13 -3 -23 -6 -15 -5 -15 -4
-3 5 8 6 11 11 5 11 -15 0 -37 -16 -37 -26 0 -5 -5 -8 -10 -6 -6 1 -17 -3 -26
-10 -10 -9 -13 -9 -9 -1 5 7 -4 6 -23 -3 -33 -17 -41 -27 -12 -17 22 8 13 -1
-17 -17 -19 -10 -22 -10 -16 2 4 7 -2 3 -14 -9 -12 -13 -25 -23 -30 -23 -14 0
-13 122 1 131 10 7 10 11 0 21 -12 12 -17 119 -5 131 3 4 12 2 20 -4 9 -8 13
-8 13 -1 0 6 7 9 15 5 10 -3 15 0 13 8 -2 9 5 13 19 11 13 -2 31 2 40 8 15 9
14 10 -7 4 -36 -9 -21 3 26 21 34 14 37 14 20 0 -11 -8 -15 -15 -9 -15 18 0
26 19 29 69 2 34 1 41 -6 26 -5 -12 -8 135 -7 376 2 373 1 396 -15 391 -10 -2
-18 -7 -18 -11 0 -4 -24 -7 -52 -8 -36 0 -47 2 -33 8 17 7 18 8 2 8 -10 1 -20
-5 -23 -13 -3 -8 -12 -12 -20 -9 -17 6 -21 153 -4 153 6 0 10 15 9 33 -1 30
-1 31 -9 7 -7 -20 -8 -15 -7 22 0 26 2 46 4 44 3 -2 15 -1 28 3 19 5 857 4
925 -1z m1100 -1 c0 -5 5 -5 10 -2 6 4 10 -7 9 -27 -1 -31 -1 -32 -9 -8 -6 17
-8 4 -8 -45 1 -56 2 -63 8 -35 l7 35 2 -42 c0 -24 -4 -43 -9 -43 -7 0 -7 -6 0
-19 13 -25 13 -31 -1 -31 -5 0 -7 5 -3 11 7 12 -101 8 -146 -5 -19 -6 -22 -5
-10 3 13 9 13 11 -2 11 -10 0 -18 -7 -18 -15 0 -8 6 -15 13 -15 8 0 9 -3 1 -8
-15 -10 -18 -120 -4 -138 7 -7 10 -26 7 -40 l-5 -26 104 6 c68 3 104 2 104 -5
0 -5 25 -9 58 -9 89 1 151 -4 146 -11 -2 -4 1 -9 8 -11 27 -9 38 21 40 114 l2
93 6 -85 6 -85 2 103 c2 95 1 102 -17 102 -11 0 -23 5 -26 10 -3 6 -17 10 -31
10 -13 0 -24 -4 -24 -10 0 -5 -9 -10 -20 -10 -11 0 -20 4 -20 10 0 5 -6 7 -13
4 -28 -10 -40 40 -30 120 6 53 6 76 -1 76 -6 0 -4 5 6 10 24 15 651 15 656 1
2 -6 -1 -11 -7 -11 -7 0 -10 -29 -9 -82 l2 -83 6 80 6 80 2 -82 c1 -60 -1 -83
-10 -84 -10 0 -10 -2 0 -6 6 -2 12 -21 12 -40 0 -28 -3 -34 -16 -29 -9 3 -25
6 -35 6 -11 0 -17 5 -14 10 3 6 -1 10 -9 10 -8 0 -18 -5 -22 -11 -4 -7 -21 -9
-40 -6 l-34 6 0 -145 c0 -80 -3 -143 -7 -141 -5 3 -8 -16 -9 -41 -1 -32 1 -41
7 -27 6 15 8 9 8 -22 1 -24 -4 -43 -9 -43 -7 0 -10 -26 -8 -70 2 -38 6 -70 11
-70 4 0 6 -62 5 -137 -1 -98 -3 -123 -8 -88 l-7 50 -1 -52 c-2 -56 0 -58 53
-54 17 2 17 0 5 -8 -12 -9 -9 -11 13 -11 15 0 27 -5 27 -11 0 -6 8 -8 19 -4
26 8 71 -15 71 -37 0 -10 -5 -18 -11 -18 -8 0 -8 -5 1 -15 10 -12 10 -15 -1
-15 -10 0 -10 -3 -1 -12 14 -14 16 -108 2 -108 -5 0 -10 -9 -10 -20 0 -11 5
-20 10 -20 14 0 13 -37 -2 -46 -6 -4 -14 -2 -16 4 -2 7 -11 12 -20 12 -15 0
-15 2 -2 11 12 9 11 10 -8 6 -12 -3 -20 -1 -17 3 3 5 -5 14 -17 21 -21 11 -22
11 -9 -4 7 -10 10 -17 5 -17 -13 0 -75 39 -101 63 -13 11 -23 15 -23 9 0 -7 5
-12 12 -12 6 0 8 -3 4 -7 -4 -4 -16 3 -26 17 -12 16 -20 20 -20 11 0 -11 -4
-10 -14 4 -8 11 -19 16 -30 12 -11 -5 -15 -3 -10 5 5 8 2 9 -9 5 -10 -4 -20 0
-26 11 -6 9 -11 14 -11 9 0 -4 -11 0 -24 8 -13 9 -28 15 -32 13 -5 -1 -20 4
-33 11 -14 8 -21 9 -17 2 9 -14 10 -14 -52 4 -29 9 -50 19 -48 24 3 4 -8 6
-23 3 -16 -2 -32 1 -35 7 -5 7 0 9 11 6 10 -3 5 1 -12 9 -22 10 -32 11 -37 3
-4 -7 -7 4 -7 23 0 29 2 31 9 15 12 -28 13 70 1 113 -5 17 -6 32 -1 32 4 0 6
8 4 18 -4 13 2 17 22 19 20 1 23 -1 13 -8 -10 -7 -4 -9 21 -7 24 2 34 -1 33
-9 -4 -16 9 -17 25 -1 9 9 12 8 12 -4 0 -13 4 -14 24 -5 23 11 27 21 15 42 -3
6 -6 50 -5 100 1 78 -2 92 -21 113 -18 20 -31 23 -94 23 -41 0 -76 4 -79 9 -3
4 -23 11 -45 15 -30 5 -36 4 -25 -4 12 -9 13 -11 1 -11 -8 0 -23 8 -34 18 -15
12 -21 14 -24 5 -6 -18 -41 -16 -60 2 -12 12 -18 13 -29 4 -8 -6 -26 -9 -41
-6 -16 4 -22 4 -14 0 10 -4 11 -7 1 -13 -7 -4 -9 -13 -5 -20 12 -19 16 -82 5
-75 -6 4 -10 -8 -10 -24 0 -17 4 -31 8 -31 4 0 9 -12 10 -26 2 -27 21 -68 22
-46 0 17 35 15 54 -3 16 -17 41 -21 31 -5 -12 19 25 10 45 -12 21 -23 27 -44
10 -33 -5 3 -10 1 -10 -4 0 -6 5 -11 12 -11 9 0 9 -3 0 -12 -16 -16 -16 -98 1
-98 8 0 7 -4 -3 -11 -11 -8 -12 -12 -2 -16 6 -2 12 -8 12 -12 0 -4 -6 -8 -12
-8 -7 0 -17 -2 -23 -3 -5 -1 -17 -2 -25 -1 -13 1 -13 2 0 11 9 6 10 10 3 10
-6 0 -15 -5 -19 -11 -5 -8 -9 -8 -14 1 -4 7 -18 14 -31 15 -13 2 -57 23 -96
48 -102 62 -243 107 -359 114 l-92 6 -5 31 c-2 17 -3 36 0 42 5 14 123 19 123
5 0 -6 5 -11 11 -11 5 0 7 5 4 10 -3 6 -1 10 4 10 6 0 11 -6 12 -12 0 -9 2 -9
6 1 5 11 7 11 14 0 5 -8 9 40 9 119 0 86 -4 131 -10 127 -7 -4 -9 62 -8 192
l2 198 6 -185 6 -185 2 204 2 203 -22 -7 c-13 -5 -54 -10 -91 -11 -55 -2 -68
0 -63 11 3 10 0 12 -11 8 -12 -5 -14 -3 -7 8 5 8 9 46 10 86 0 39 5 77 11 85
9 10 75 13 322 13 171 0 311 -4 311 -8z m-32 -214 c-10 -2 -28 -2 -40 0 -13 2
-5 4 17 4 22 1 32 -1 23 -4z m299 -9 c-3 -3 -12 -4 -19 -1 -8 3 -5 6 6 6 11 1
17 -2 13 -5z m-420 -106 c-2 -13 -4 -3 -4 22 0 25 2 35 4 23 2 -13 2 -33 0
-45z m-422 -100 c3 -73 5 -176 3 -228 l-3 -95 -142 -3 -142 -3 -17 26 c-16 24
-15 26 30 71 65 66 86 129 86 253 0 54 3 101 7 104 3 4 43 7 89 7 l82 0 7
-132z m508 5 c-7 -2 -21 -2 -30 0 -10 3 -4 5 12 5 17 0 24 -2 18 -5z m-800
-98 c-3 -9 -8 -14 -10 -11 -3 3 -2 9 2 15 9 16 15 13 8 -4z m394 -137 c-3 -8
-6 -5 -6 6 -1 11 2 17 5 13 3 -3 4 -12 1 -19z m0 -140 c-2 -24 -4 -5 -4 42 0
47 2 66 4 43 2 -24 2 -62 0 -85z m750 86 c-3 -3 -12 -4 -19 -1 -8 3 -5 6 6 6
11 1 17 -2 13 -5z m-1189 -149 c-3 -3 -9 2 -12 12 -6 14 -5 15 5 6 7 -7 10
-15 7 -18z m377 -165 c-2 -3 12 -4 32 -2 24 3 34 1 29 -6 -4 -7 7 -10 31 -9
26 1 48 -6 70 -22 17 -13 36 -20 42 -16 7 4 19 1 27 -6 9 -7 23 -14 31 -15 20
-3 44 -25 37 -35 -3 -5 1 -9 8 -10 37 -2 55 -10 73 -33 12 -15 26 -26 33 -26
9 0 10 -5 2 -19 -7 -14 -7 -22 0 -26 6 -4 9 -1 8 6 -2 6 2 13 8 16 14 5 126
-115 119 -127 -3 -5 2 -13 12 -18 11 -7 17 -22 17 -46 0 -21 3 -31 8 -23 7 11
12 -6 11 -40 -1 -7 3 -13 9 -13 5 0 8 -6 7 -12 -1 -7 1 -20 4 -28 39 -99 47
-510 12 -621 -4 -10 1 -19 12 -23 10 -4 14 -4 11 0 -4 3 6 20 22 38 17 17 30
36 30 43 0 6 5 15 12 19 7 4 8 3 4 -5 -4 -6 -3 -18 4 -26 6 -7 12 -29 12 -47
0 -18 4 -40 8 -48 4 -8 10 -31 13 -50 6 -35 6 -35 -8 -10 -8 14 -14 21 -15 17
0 -12 21 -51 33 -58 5 -4 6 -16 2 -28 -7 -22 -8 -22 -26 -5 -11 10 -30 19 -42
21 -22 3 -22 1 -20 -104 3 -108 -4 -173 -16 -173 -3 1 -17 23 -30 50 -13 27
-34 59 -47 71 l-22 21 -7 -69 c-4 -37 -11 -70 -16 -73 -4 -3 -10 -34 -14 -70
-3 -35 -10 -70 -16 -76 -6 -7 -8 -17 -5 -22 7 -11 -20 -99 -40 -130 -9 -14
-11 -21 -5 -18 8 5 8 0 0 -18 -19 -41 -28 -20 -22 52 3 37 1 97 -5 134 -11 70
-6 121 9 96 6 -8 9 1 10 27 1 22 1 43 1 46 -1 4 3 22 9 40 6 19 12 61 15 94 2
33 6 67 7 75 4 21 26 57 27 45 1 -5 6 -1 11 10 8 17 9 17 6 -7 -3 -17 0 -25 8
-22 7 3 20 38 30 79 11 41 23 75 27 75 4 0 8 -5 8 -12 0 -6 3 -8 6 -5 4 4 1
13 -6 22 -7 8 -9 22 -5 32 4 10 9 25 10 33 9 52 26 172 29 208 4 42 4 43 -17
29 l-22 -14 1 131 c0 83 -4 138 -11 151 -19 33 -25 64 -10 59 7 -3 16 -1 20 5
3 7 0 8 -10 5 -10 -4 -14 -1 -12 7 2 8 2 11 0 7 -9 -16 -23 -7 -23 15 0 12 -4
28 -9 35 -11 19 -22 -24 -14 -57 4 -18 3 -22 -7 -16 -9 5 -11 4 -6 -4 9 -14
-2 -51 -14 -51 -5 0 -7 6 -4 14 3 8 1 16 -4 20 -5 3 -8 -9 -7 -27 2 -26 -6
-40 -39 -73 -53 -52 -101 -85 -110 -76 -4 4 -6 1 -4 -6 3 -12 -53 -79 -162
-193 -51 -53 -59 -58 -112 -64 -100 -12 -332 0 -361 20 -23 15 -77 77 -77 88
0 5 -20 30 -78 98 -18 21 -57 54 -85 73 -70 47 -113 94 -138 150 -17 40 -18
50 -7 64 9 11 10 14 1 8 -10 -5 -13 4 -14 36 l-2 43 -11 -58 c-6 -32 -14 -55
-19 -51 -4 4 -7 -3 -7 -15 0 -12 -4 -20 -9 -17 -5 3 -11 -3 -14 -13 -3 -14 -1
-18 9 -14 8 3 14 0 14 -6 0 -6 -4 -11 -8 -11 -5 0 -7 -13 -4 -30 2 -16 0 -30
-4 -30 -5 0 -8 -50 -6 -112 3 -97 1 -110 -11 -99 -19 15 -26 4 -21 -34 2 -16
5 -68 6 -115 2 -46 5 -75 7 -65 2 11 12 -16 23 -60 10 -43 16 -85 14 -92 -3
-7 -1 -15 5 -18 5 -4 16 -21 23 -38 12 -27 15 -28 15 -10 2 43 28 33 32 -12 0
-5 7 -17 14 -25 8 -9 14 -43 16 -85 1 -38 6 -80 10 -93 6 -14 5 -31 -2 -44 -8
-15 -8 -19 0 -14 6 4 11 0 11 -8 0 -9 5 -16 10 -16 6 0 10 -4 10 -10 0 -5 -8
-7 -17 -3 -16 5 -16 4 0 -9 17 -13 19 -29 18 -158 -1 -79 -4 -146 -7 -149 -8
-9 -24 23 -19 37 3 7 0 10 -5 7 -6 -3 -10 -4 -10 -1 0 3 -11 50 -25 103 -14
54 -27 109 -29 123 -1 14 -6 32 -9 40 -4 8 -10 51 -14 94 -5 44 -13 81 -18 83
-6 2 -19 -10 -28 -27 -10 -17 -22 -28 -28 -25 -5 3 -6 -1 -3 -10 4 -9 -2 -25
-15 -39 -12 -12 -18 -27 -14 -32 4 -5 2 -4 -6 2 -14 13 -21 194 -10 251 6 29
5 31 -22 35 -17 3 -37 -2 -47 -9 -15 -13 -15 -13 6 -3 32 15 27 5 -10 -21 -17
-13 -28 -16 -23 -8 5 7 8 26 6 41 -1 17 2 28 9 28 7 0 9 7 6 17 -9 24 13 124
33 147 9 11 10 16 4 12 -7 -4 -13 -2 -13 3 0 22 17 10 48 -34 35 -50 56 -51
47 -2 -23 135 -30 331 -16 422 7 39 11 83 11 98 0 16 3 26 8 23 4 -2 8 10 9
27 1 46 22 119 32 112 5 -3 12 2 15 11 4 9 2 13 -5 8 -8 -5 -8 -1 0 13 6 11 7
24 3 28 -4 5 -1 4 7 0 11 -6 13 -4 8 8 -7 19 8 32 19 16 5 -8 3 -9 -6 -4 -9 5
-11 4 -6 -4 12 -19 27 -2 16 19 -7 13 -7 21 2 26 7 5 8 3 3 -6 -6 -9 -4 -11 4
-6 7 5 10 15 7 23 -4 10 -2 13 8 10 10 -4 13 -1 9 9 -8 22 15 17 27 -6 8 -15
8 -30 0 -56 -10 -30 -14 -33 -28 -22 -14 10 -15 10 -5 -1 8 -10 10 -35 6 -80
l-6 -66 32 33 c38 37 44 38 91 12 19 -11 43 -22 53 -26 15 -6 21 -17 18 -36 0
-4 5 -5 12 -2 7 2 30 -14 52 -36 21 -22 43 -40 47 -40 13 0 9 75 -7 119 -8 25
-10 39 -4 35 6 -3 5 4 -2 17 -15 27 -16 30 -18 77 -1 43 -22 38 -38 -9 -9 -27
-13 -31 -18 -16 -4 9 -5 24 -1 32 3 8 6 17 6 20 1 2 10 27 20 55 22 59 11 64
-38 18 -19 -19 -30 -26 -27 -15 4 9 11 17 17 17 5 0 6 5 3 10 -3 6 -1 10 5 10
6 0 8 5 5 10 -3 6 -2 10 2 10 5 0 16 13 25 28 9 15 29 40 44 55 35 36 24 45
-20 17 -20 -12 -41 -18 -47 -14 -7 4 -9 3 -6 -3 4 -5 -5 -20 -18 -31 -14 -12
-25 -19 -25 -16 0 3 -9 -4 -20 -17 -17 -21 -21 -22 -30 -9 -9 12 -10 10 -5 -9
6 -19 4 -23 -8 -18 -11 4 -14 2 -10 -8 3 -8 -2 -18 -11 -21 -9 -3 -14 -10 -11
-14 3 -4 -1 -10 -8 -13 -8 -3 -19 4 -27 16 -11 19 -10 23 10 37 12 8 36 30 53
48 18 17 36 32 41 32 5 0 14 6 20 14 19 26 144 86 162 79 12 -4 15 -3 10 5 -4
7 -2 10 7 6 8 -3 20 2 27 11 7 8 20 15 29 15 14 0 14 -2 1 -10 -11 -7 -6 -8
19 -5 18 2 36 7 40 11 3 4 -2 4 -11 1 -10 -3 -20 -2 -22 2 -7 11 63 22 93 14
15 -4 22 -2 18 4 -4 6 22 10 68 10 41 0 72 -3 70 -7z m682 -57 c-3 -10 -5 -4
-5 12 0 17 2 24 5 18 2 -7 2 -21 0 -30z m-1504 -230 c-7 -3 -13 -12 -13 -20 0
-9 -9 -30 -19 -47 -51 -82 -96 -231 -150 -492 -55 -268 -115 -473 -128 -436
-4 10 -9 8 -18 -5 -13 -16 -16 -14 -36 32 -23 52 -24 56 -15 92 2 13 1 25 -5
28 -5 4 -9 -6 -9 -22 0 -22 -2 -25 -10 -13 -5 8 -7 23 -4 34 4 12 2 16 -5 12
-6 -4 -12 -1 -13 6 0 7 -2 18 -2 24 -1 6 -7 18 -14 26 -9 11 -9 23 -3 39 5 13
10 18 10 10 1 -8 3 -12 6 -9 3 3 1 16 -4 29 -5 13 -10 18 -10 12 -1 -7 -8 -13
-17 -13 -12 0 -15 6 -10 25 4 17 2 27 -8 31 -9 4 -13 15 -10 31 3 16 1 22 -6
18 -7 -4 -9 3 -5 22 5 21 4 24 -4 13 -6 -8 -11 -10 -11 -4 0 5 5 15 12 22 9 9
9 12 -3 12 -12 0 -15 8 -12 33 4 26 2 29 -7 17 -10 -12 -11 -11 -7 8 3 13 -1
35 -9 50 -17 32 -19 66 -3 56 8 -4 9 3 4 26 -5 23 -3 35 6 41 11 7 11 9 1 9
-7 0 -17 -10 -22 -22 l-9 -23 0 23 c-1 12 6 25 14 28 8 4 15 10 15 15 0 4 -6
6 -14 3 -7 -3 -16 1 -19 9 -4 11 0 13 16 10 17 -4 19 -3 7 6 -17 12 -16 13 29
36 18 9 30 12 27 6 -4 -7 -1 -8 8 -5 10 4 16 1 16 -7 0 -7 3 -9 6 -6 4 4 1 13
-6 22 -11 13 -10 14 5 9 13 -5 16 -4 11 4 -10 16 0 15 17 -2 19 -19 46 -4 29
16 -9 12 -3 19 34 37 38 18 49 20 62 9 13 -11 15 -10 9 4 -7 19 26 44 43 33 6
-3 10 -2 10 3 0 4 16 16 35 25 30 14 35 15 35 2 0 -8 5 -15 11 -15 5 0 7 5 3
11 -4 7 0 9 12 5 11 -3 26 -1 34 5 12 8 11 9 -5 5 -11 -3 -27 -1 -35 4 -10 7
-11 10 -2 11 27 3 31 4 37 11 4 4 14 4 23 1 10 -4 13 -2 8 5 -5 8 -1 10 10 5
12 -5 15 -3 9 6 -6 10 -3 11 13 2 28 -15 32 -14 32 7 0 14 -2 15 -10 2 -6 -9
-10 -10 -10 -3 0 18 33 34 45 21 7 -7 6 -12 -2 -15z m1527 -36 c-9 19 -8 22 5
17 8 -4 15 -10 15 -16 0 -5 5 -6 12 -2 6 4 8 3 4 -4 -3 -6 -2 -13 4 -17 6 -4
8 -11 5 -16 -3 -5 1 -6 10 -3 12 5 13 9 4 20 -9 11 -5 11 22 -1 19 -8 51 -23
72 -31 35 -15 47 -43 16 -36 -8 2 -10 0 -6 -5 5 -4 10 -6 11 -3 2 3 10 -1 19
-9 11 -9 17 -10 17 -2 0 12 29 15 54 5 9 -3 13 -11 9 -17 -4 -6 0 -8 10 -4 10
3 17 2 17 -4 0 -6 4 -8 9 -4 14 8 121 -47 114 -58 -3 -5 3 -6 15 -3 15 5 22 2
27 -14 3 -11 11 -20 17 -20 6 0 8 -12 4 -32 -4 -18 -9 -59 -11 -90 -4 -67 -25
-168 -35 -168 -3 0 -11 5 -18 12 -8 8 -12 8 -12 1 0 -6 7 -13 15 -17 21 -8 19
-29 -5 -56 -22 -25 -26 -35 -10 -25 6 3 10 -1 10 -9 0 -9 -5 -16 -11 -16 -6 0
-8 -7 -5 -16 4 -10 2 -13 -6 -8 -8 5 -9 1 -4 -12 4 -10 4 -15 0 -12 -3 4 -13
1 -20 -7 -19 -18 -18 -26 3 -18 13 5 15 3 9 -13 -5 -10 -11 -27 -13 -36 -3
-10 -10 -18 -15 -18 -5 0 -7 -4 -3 -9 7 -12 -24 -91 -37 -91 -5 0 -8 -6 -7
-12 2 -24 -13 -58 -24 -51 -6 4 -8 0 -4 -10 8 -22 1 -21 -22 1 -24 22 -68 172
-126 433 -51 232 -93 374 -136 462 -35 72 -35 77 -8 46 19 -23 20 -23 9 -2z
m215 -87 c-3 -5 -11 -10 -16 -10 -6 0 -7 5 -4 10 3 6 11 10 16 10 6 0 7 -4 4
-10z m-2150 -68 c-3 -3 -11 0 -18 7 -9 10 -8 11 6 5 10 -3 15 -9 12 -12z m708
-388 c-3 -8 0 -14 5 -14 6 0 10 -12 9 -27 -2 -24 2 -29 26 -31 15 -2 27 -7 27
-12 0 -5 3 -15 6 -24 8 -20 -24 -21 -70 -2 -50 21 -81 105 -60 161 6 14 11 12
35 -11 15 -14 25 -33 22 -40z m952 26 c10 -46 -26 -117 -69 -135 -20 -8 -43
-15 -51 -15 -24 0 -15 44 10 48 34 7 47 22 33 40 -10 12 -10 16 0 19 6 3 12
12 12 21 0 19 29 52 46 52 7 0 15 -13 19 -30z m-440 -230 c15 -6 64 -46 110
-90 45 -43 95 -82 109 -86 25 -6 26 -8 11 -25 -16 -17 -15 -17 6 -12 12 3 52
35 89 70 37 34 74 63 83 63 21 0 31 -50 16 -86 l-11 -29 -10 25 c-7 20 -11 22
-18 10 -5 -8 -10 -22 -10 -30 0 -33 -51 -120 -107 -186 -127 -148 -177 -228
-249 -398 -38 -91 -58 -116 -90 -116 -29 0 -58 37 -83 106 -53 141 -124 255
-251 406 -67 78 -110 161 -110 208 0 29 -17 24 -28 -7 -9 -28 -9 -28 -21 15
-15 52 -12 71 12 86 15 9 27 1 80 -56 55 -59 92 -88 113 -88 3 0 1 7 -7 16
-10 13 -10 17 2 25 8 5 18 9 22 9 5 0 39 29 75 64 98 93 135 116 193 116 26 0
60 -5 74 -10z m-1132 -245 c-3 -9 -8 -14 -10 -11 -3 3 -2 9 2 15 9 16 15 13 8
-4z m709 -617 c-1 -5 3 -8 8 -8 6 0 19 -14 29 -30 43 -72 174 -210 244 -257
22 -16 33 -29 27 -33 -6 -4 4 -7 22 -8 38 0 88 16 88 30 0 5 8 8 17 6 10 -2
22 7 29 20 12 24 48 62 59 62 3 0 3 -6 -1 -12 -4 -7 5 -2 19 11 15 13 24 27
22 31 -3 4 7 20 20 36 14 16 25 33 25 38 0 4 7 6 15 2 8 -3 14 -1 12 4 -2 10
55 99 64 100 4 0 10 -7 13 -16 4 -10 2 -13 -6 -8 -8 5 -9 2 -4 -11 5 -14 4
-15 -7 -7 -10 8 -13 6 -13 -8 0 -10 4 -16 8 -14 13 8 -31 -68 -52 -91 -11 -11
-19 -24 -19 -28 0 -4 -8 -18 -19 -31 -16 -22 -19 -22 -29 -8 -9 14 -10 13 -6
-8 3 -19 -5 -36 -32 -68 -21 -23 -41 -39 -46 -36 -5 3 -6 -1 -3 -9 3 -9 -15
-31 -46 -57 -47 -40 -54 -42 -74 -30 -21 13 -21 12 -3 -8 18 -20 18 -20 0 -25
-18 -4 -42 15 -134 106 -51 51 -61 70 -31 61 15 -5 15 -4 -1 6 -18 11 -18 13
0 33 l18 22 -22 -19 c-13 -10 -20 -23 -16 -29 3 -5 0 -8 -6 -6 -7 3 -20 18
-29 34 -9 17 -23 34 -30 38 -7 5 -10 12 -7 18 4 5 -1 12 -10 15 -12 5 -13 9
-4 20 10 12 9 13 -5 8 -12 -5 -15 -2 -10 10 3 9 10 16 15 16 5 0 9 5 9 12 0 6
-10 3 -22 -8 -12 -10 -18 -13 -14 -6 4 6 2 12 -4 12 -19 0 -50 62 -39 81 6 12
5 20 -3 25 -7 4 -8 3 -4 -4 4 -7 3 -12 -2 -12 -10 0 -38 60 -34 73 1 4 -3 7
-9 7 -5 0 -7 5 -3 11 7 12 40 -38 36 -53z m748 42 c0 -11 -4 -20 -10 -20 -5 0
-10 -10 -10 -22 -1 -20 -2 -21 -10 -6 -7 11 -6 25 2 42 13 31 28 34 28 6z
m-903 -59 c0 -11 -5 -18 -9 -15 -4 3 -5 11 -1 19 7 21 12 19 10 -4z m1024 -14
c-10 -9 -11 -8 -5 6 3 10 9 15 12 12 3 -3 0 -11 -7 -18z m-321 -172 c-7 -9
-15 -13 -17 -11 -7 7 7 26 19 26 6 0 6 -6 -2 -15z m-90 -79 c0 -3 -4 -8 -10
-11 -5 -3 -10 -1 -10 4 0 6 5 11 10 11 6 0 10 -2 10 -4z"/>
<path d="M1404 3571 c3 -4 -6 -6 -21 -3 -18 3 -24 1 -19 -7 8 -13 5 -13 -51
-2 -24 5 -43 4 -43 0 0 -5 -7 -9 -15 -9 -8 0 -15 5 -15 10 0 6 -7 10 -15 10
-8 0 -15 -4 -15 -9 0 -4 -12 -6 -26 -3 -14 2 -37 -2 -51 -9 -21 -11 -27 -11
-30 -1 -3 6 -9 12 -14 12 -6 0 -7 -6 -3 -12 6 -10 4 -10 -8 0 -20 16 -27 -1
-29 -66 l-2 -47 -7 40 c-6 32 -7 24 -9 -43 0 -53 3 -81 9 -77 6 3 10 2 10 -4
0 -5 -4 -13 -10 -16 -13 -8 -13 -65 1 -65 5 0 7 5 4 10 -9 14 9 12 24 -2 10
-11 14 -10 22 5 6 9 15 17 20 17 6 0 7 -5 3 -12 -5 -7 -3 -8 6 -3 7 5 37 7 67
6 35 -1 61 3 75 13 12 9 29 16 38 15 10 0 9 -3 -5 -10 -15 -7 -9 -8 20 -4 22
3 58 7 79 8 32 3 40 8 43 26 2 14 -1 20 -8 15 -8 -4 -8 -1 -1 12 17 34 24 154
10 172 -11 13 -11 14 1 8 9 -6 12 -5 9 5 -3 8 -11 13 -17 12 -6 -2 -11 2 -11
7 0 6 -5 10 -11 10 -5 0 -8 -4 -5 -9z m-357 -193 c-3 -8 -6 -5 -6 6 -1 11 2
17 5 13 3 -3 4 -12 1 -19z m176 -75 c-7 -2 -21 -2 -30 0 -10 3 -4 5 12 5 17 0
24 -2 18 -5z"/>
<path d="M1035 3550 c-3 -5 -1 -10 4 -10 6 0 11 5 11 10 0 6 -2 10 -4 10 -3 0
-8 -4 -11 -10z"/>
<path d="M733 3480 c0 -25 2 -35 4 -22 2 12 2 32 0 45 -2 12 -4 2 -4 -23z"/>
<path d="M732 3100 c0 -14 2 -19 5 -12 2 6 2 18 0 25 -3 6 -5 1 -5 -13z"/>
<path d="M1158 3063 c7 -3 16 -2 19 1 4 3 -2 6 -13 5 -11 0 -14 -3 -6 -6z"/>
<path d="M733 2975 c0 -38 2 -53 4 -32 2 20 2 52 0 70 -2 17 -4 1 -4 -38z"/>
<path d="M732 2860 c0 -14 2 -19 5 -12 2 6 2 18 0 25 -3 6 -5 1 -5 -13z"/>
<path d="M1215 2640 c-3 -5 -1 -10 4 -10 6 0 11 5 11 10 0 6 -2 10 -4 10 -3 0
-8 -4 -11 -10z"/>
<path d="M561 2564 c0 -11 3 -14 6 -6 3 7 2 16 -1 19 -3 4 -6 -2 -5 -13z"/>
<path d="M885 2534 c-22 -8 -44 -19 -49 -24 -5 -5 11 -1 37 8 25 10 49 21 53
25 9 9 7 8 -41 -9z"/>
<path d="M2038 3593 c12 -2 30 -2 40 0 9 3 -1 5 -23 4 -22 0 -30 -2 -17 -4z"/>
<path d="M3225 3549 c-4 -6 -5 -12 -2 -15 2 -3 7 2 10 11 7 17 1 20 -8 4z"/>
<path d="M3391 3544 c0 -11 3 -14 6 -6 3 7 2 16 -1 19 -3 4 -6 -2 -5 -13z"/>
<path d="M2441 3394 c0 -11 3 -14 6 -6 3 7 2 16 -1 19 -3 4 -6 -2 -5 -13z"/>
<path d="M3222 3335 c0 -16 2 -22 5 -12 2 9 2 23 0 30 -3 6 -5 -1 -5 -18z"/>
<path d="M3223 2920 c0 -25 2 -35 4 -22 2 12 2 32 0 45 -2 12 -4 2 -4 -23z"/>
<path d="M2048 2923 c6 -2 18 -2 25 0 6 3 1 5 -13 5 -14 0 -19 -2 -12 -5z"/>
<path d="M2450 2910 c0 -11 4 -20 9 -20 5 0 7 9 4 20 -3 11 -7 20 -9 20 -2 0
-4 -9 -4 -20z"/>
<path d="M3382 2636 c7 -8 15 -12 17 -11 5 6 -10 25 -20 25 -5 0 -4 -6 3 -14z"/>
<path d="M3393 2515 c0 -27 2 -38 4 -22 2 15 2 37 0 50 -2 12 -4 0 -4 -28z"/>
<path d="M3391 2394 c0 -11 3 -14 6 -6 3 7 2 16 -1 19 -3 4 -6 -2 -5 -13z"/>
<path d="M2180 2730 c8 -5 20 -10 25 -10 6 0 3 5 -5 10 -8 5 -19 10 -25 10 -5
0 -3 -5 5 -10z"/>
<path d="M1698 2683 c7 -3 16 -2 19 1 4 3 -2 6 -13 5 -11 0 -14 -3 -6 -6z"/>
<path d="M1644 2664 c-18 -14 -18 -14 6 -3 31 14 36 19 24 19 -6 0 -19 -7 -30
-16z"/>
<path d="M2337 2669 c7 -7 15 -10 18 -7 3 3 -2 9 -12 12 -14 6 -15 5 -6 -5z"/>
<path d="M2288 2654 c6 -3 12 -12 12 -19 0 -7 8 -15 19 -18 10 -2 24 -18 32
-35 7 -17 16 -29 19 -27 4 2 13 -12 22 -31 9 -18 14 -34 13 -34 -2 0 -18 14
-36 31 -38 36 -47 27 -25 -26 17 -39 33 -156 17 -120 -4 11 -7 22 -6 25 1 3
-6 14 -16 24 -19 19 -19 19 -19 -3 0 -41 -32 -151 -42 -145 -6 4 -7 -2 -3 -16
4 -12 3 -20 -1 -17 -8 4 -9 -17 -5 -68 1 -9 10 -14 25 -13 14 1 22 6 19 11 -7
12 56 69 69 61 6 -4 8 -3 4 4 -7 11 27 38 82 65 38 19 71 11 95 -23 21 -30 27
-13 17 51 -12 76 -14 85 -27 100 -6 8 -16 25 -23 38 -10 19 -9 22 1 16 8 -5
10 -4 5 3 -4 7 -11 12 -15 12 -5 0 -27 19 -50 41 -31 32 -39 45 -30 55 8 9 5
15 -10 23 -11 6 -22 7 -25 2 -3 -5 1 -12 10 -15 9 -4 15 -9 12 -12 -3 -3 -27
10 -54 28 -27 18 -60 34 -74 35 -14 1 -19 0 -12 -3z"/>
<path d="M1524 2589 c-3 -6 -1 -16 5 -22 6 -6 11 -9 12 -6 0 2 2 12 4 22 4 19
-10 23 -21 6z"/>
<path d="M2510 2542 c0 -10 49 -57 53 -51 2 2 -9 17 -25 32 -15 15 -28 24 -28
19z"/>
<path d="M2605 2430 c2 -13 -1 -20 -8 -18 -7 2 -15 -1 -17 -6 -7 -12 37 -18
45 -7 3 5 1 12 -5 16 -6 4 -8 10 -5 15 3 5 1 11 -4 15 -6 3 -8 -4 -6 -15z"/>
<path d="M1760 2076 c0 -3 20 -34 45 -71 25 -36 42 -71 39 -77 -4 -6 -3 -8 3
-5 6 4 21 -5 33 -18 13 -14 32 -25 42 -25 22 0 22 2 -1 44 -47 82 -74 118
-104 136 -30 19 -57 26 -57 16z"/>
<path d="M2160 2070 c-12 -8 -12 -10 -1 -10 8 0 0 -13 -18 -32 -17 -17 -31
-37 -31 -43 0 -6 -11 -27 -25 -47 -14 -20 -25 -42 -25 -47 0 -17 25 -13 54 10
14 11 30 18 35 14 5 -3 13 -1 16 5 4 6 3 10 -2 9 -4 -1 -11 -1 -15 0 -8 1 57
107 79 129 24 25 12 26 -46 4 -9 -3 -12 -1 -7 6 9 14 6 15 -14 2z"/>
<path d="M1554 2061 c7 -11 46 -35 46 -28 0 3 -12 12 -26 22 -15 9 -23 12 -20
6z"/>
<path d="M2105 2030 c-3 -5 -1 -10 4 -10 6 0 11 5 11 10 0 6 -2 10 -4 10 -3 0
-8 -4 -11 -10z"/>
<path d="M1302 1990 c0 -14 2 -19 5 -12 2 6 2 18 0 25 -3 6 -5 1 -5 -13z"/>
<path d="M2084 1980 c0 -13 4 -16 10 -10 7 7 7 13 0 20 -6 6 -10 3 -10 -10z"/>
<path d="M1710 1916 c0 -2 7 -7 16 -10 8 -3 12 -2 9 4 -6 10 -25 14 -25 6z"/>
<path d="M1182 1600 c0 -14 2 -19 5 -12 2 6 2 18 0 25 -3 6 -5 1 -5 -13z"/>
<path d="M1227 1499 c7 -7 15 -10 18 -7 3 3 -2 9 -12 12 -14 6 -15 5 -6 -5z"/>
<path d="M1252 1420 c0 -14 2 -19 5 -12 2 6 2 18 0 25 -3 6 -5 1 -5 -13z"/>
<path d="M1391 1164 c0 -11 3 -14 6 -6 3 7 2 16 -1 19 -3 4 -6 -2 -5 -13z"/>
<path d="M2531 944 c0 -11 3 -14 6 -6 3 7 2 16 -1 19 -3 4 -6 -2 -5 -13z"/>
<path d="M1035 2380 c-8 -13 9 -20 24 -11 10 6 9 10 -3 14 -8 3 -18 2 -21 -3z"/>
<path d="M968 2353 c7 -3 16 -2 19 1 4 3 -2 6 -13 5 -11 0 -14 -3 -6 -6z"/>
<path d="M904 2325 c-18 -15 -18 -15 0 -8 13 4 17 3 12 -5 -4 -8 -2 -10 8 -6
8 3 12 12 9 20 -6 17 -5 17 -29 -1z"/>
<path d="M735 2220 c-3 -6 1 -7 9 -4 18 7 21 14 7 14 -6 0 -13 -4 -16 -10z"/>
<path d="M737 2039 c4 -13 8 -18 11 -10 2 7 -1 18 -6 23 -8 8 -9 4 -5 -13z"/>
<path d="M771 1904 c0 -11 3 -14 6 -6 3 7 2 16 -1 19 -3 4 -6 -2 -5 -13z"/>
<path d="M817 1703 c3 -7 6 -13 8 -13 2 0 5 6 8 13 3 8 -1 14 -8 14 -7 0 -11
-6 -8 -14z"/>
<path d="M886 1565 c-9 -25 -7 -32 5 -15 8 12 10 9 6 -13 -2 -15 -2 -25 1 -22
3 2 11 0 19 -6 10 -9 9 -1 -3 27 -20 48 -20 48 -28 29z"/>
<path d="M906 1487 c3 -10 9 -15 12 -12 3 3 0 11 -7 18 -10 9 -11 8 -5 -6z"/>
<path d="M2850 2390 c-9 -6 -10 -10 -3 -10 6 0 15 5 18 10 8 12 4 12 -15 0z"/>
<path d="M2902 2371 c-11 -7 -10 -9 3 -14 9 -4 14 -3 10 2 -3 5 1 12 7 14 7 3
9 6 3 6 -5 0 -16 -3 -23 -8z"/>
<path d="M3026 2311 c-3 -5 1 -11 9 -14 9 -4 12 -1 8 9 -6 16 -10 17 -17 5z"/>
<path d="M3060 2286 c0 -2 7 -7 16 -10 8 -3 12 -2 9 4 -6 10 -25 14 -25 6z"/>
<path d="M3109 2273 c-13 -16 -12 -17 4 -4 16 13 21 21 13 21 -2 0 -10 -8 -17
-17z"/>
<path d="M3153 2255 c0 -7 8 -10 19 -7 10 2 18 6 18 7 0 1 -8 5 -18 7 -11 3
-19 0 -19 -7z"/>
<path d="M3170 2236 c0 -2 7 -7 16 -10 8 -3 12 -2 9 4 -6 10 -25 14 -25 6z"/>
<path d="M3215 2220 c3 -5 11 -10 16 -10 6 0 7 5 4 10 -3 6 -11 10 -16 10 -6
0 -7 -4 -4 -10z"/>
<path d="M3230 2168 c0 -9 5 -20 10 -23 13 -8 13 5 0 25 -8 13 -10 13 -10 -2z"/>
<path d="M3231 2023 c-1 -6 -4 -20 -7 -30 -5 -17 -5 -17 6 0 6 10 9 23 6 30
-3 9 -5 9 -5 0z"/>
<path d="M3156 1805 c-9 -26 -7 -32 5 -12 6 10 9 21 6 23 -2 3 -7 -2 -11 -11z"/>
<path d="M3121 1687 c-13 -21 -12 -21 5 -5 10 10 16 20 13 22 -3 3 -11 -5 -18
-17z"/>
<path d="M3075 1579 c-4 -6 -5 -12 -2 -15 2 -3 7 2 10 11 7 17 1 20 -8 4z"/>
<path d="M3070 1539 c0 -5 5 -7 10 -4 6 3 10 8 10 11 0 2 -4 4 -10 4 -5 0 -10
-5 -10 -11z"/>
<path d="M1848 1543 c-23 -26 -50 -83 -40 -83 5 0 17 10 28 21 10 12 29 25 42
30 15 6 22 16 20 26 -5 24 -31 27 -50 6z"/>
<path d="M2097 1553 c-3 -5 0 -19 5 -33 7 -16 12 -20 15 -12 4 10 15 4 39 -19
35 -34 42 -33 23 4 -26 50 -69 81 -82 60z"/>
<path d="M1938 1510 c-38 -20 -79 -66 -112 -122 -17 -27 -11 -24 32 20 52 54
102 82 145 82 30 0 105 -48 140 -89 36 -43 34 -29 -4 31 -57 89 -129 117 -201
78z"/>
<path d="M2243 635 c0 -8 4 -12 9 -9 5 3 6 10 3 15 -9 13 -12 11 -12 -6z"/>
<path d="M1780 580 c0 -5 5 -10 11 -10 5 0 7 5 4 10 -3 6 -8 10 -11 10 -2 0
-4 -4 -4 -10z"/>
<path d="M2182 575 c2 -11 -3 -20 -11 -20 -16 0 -26 -21 -14 -28 14 -9 42 38
32 54 -8 11 -9 10 -7 -6z"/>
<path d="M1870 529 c0 -5 5 -7 10 -4 6 3 10 8 10 11 0 2 -4 4 -10 4 -5 0 -10
-5 -10 -11z"/>
<path d="M2135 510 c-3 -5 -1 -10 4 -10 6 0 11 5 11 10 0 6 -2 10 -4 10 -3 0
-8 -4 -11 -10z"/>
<path d="M2070 470 c-9 -6 -10 -10 -3 -10 6 0 15 5 18 10 8 12 4 12 -15 0z"/>
<path d="M1880 465 c0 -2 6 -8 13 -14 10 -8 14 -7 14 2 0 8 -6 14 -14 14 -7 0
-13 -1 -13 -2z"/>
<path d="M2099 453 c-13 -16 -12 -17 4 -4 16 13 21 21 13 21 -2 0 -10 -8 -17
-17z"/>
<path d="M2047 423 c-4 -3 -7 -11 -7 -17 0 -6 5 -5 12 2 6 6 9 14 7 17 -3 3
-9 2 -12 -2z"/>
<path d="M1960 393 c0 -6 8 -17 18 -24 16 -13 16 -13 2 6 -8 11 -16 22 -17 24
-2 2 -3 0 -3 -6z"/>
</g>
</svg>
